# xmcd CD database file
#
# Track frame offsets:
#	150
#	33123
#	70665
#	87589
#	106065
#	116594
#	133993
#	143188
#	180058
#	191117
#
# Disc length: 3033 seconds
#
# Revision: 0
# Processed by: cddbd v1.5.2PL0 Copyright (c) Steve Scherf et al.
# Submitted via: CDex 1.70beta2
#
DISCID=840bd70a
DTITLE=Furio di Castri - Zapping
DYEAR=2008
DGENRE=Jazz
TTITLE0=Jazz in the James Bondage
TTITLE1=Skippy
TTITLE2=Coffee Break Da Mario
TTITLE3=God Shave the Queen
TTITLE4=Twenty Small Cigars
TTITLE5=Facing the Beauty
TTITLE6=Born in the USB
TTITLE7=The Monk Page
TTITLE8=Thanh Hoa Bridge
TTITLE9=Carolina Moon
EXTD=YEAR: 2008
EXTT0=
EXTT1=
EXTT2=
EXTT3=
EXTT4=
EXTT5=
EXTT6=
EXTT7=
EXTT8=
EXTT9=
PLAYORDER=
